<svg xmlns="http://www.w3.org/2000/svg" width="18" height="18" viewBox="0 0 18 18" fill="none">
  <path d="M15 9.35C15 9.57091 14.8209 9.75 14.6 9.75H10.15C9.92909 9.75 9.75 9.92909 9.75 10.15V14.6C9.75 14.8209 9.57091 15 9.35 15H8.65C8.42909 15 8.25 14.8209 8.25 14.6V10.15C8.25 9.92909 8.07091 9.75 7.85 9.75H3.4C3.17909 9.75 3 9.57091 3 9.35V8.65C3 8.42909 3.17909 8.25 3.4 8.25H7.85C8.07091 8.25 8.25 8.07091 8.25 7.85V3.4C8.25 3.17909 8.42909 3 8.65 3H9.35C9.57091 3 9.75 3.17909 9.75 3.4V7.85C9.75 8.07091 9.92909 8.25 10.15 8.25H14.6C14.8209 8.25 15 8.42909 15 8.65V9.35Z"/>
</svg>