<svg xmlns="http://www.w3.org/2000/svg" width="18" height="18" viewBox="0 0 18 18" fill="none">
  <path d="M16.9244 7.36364H11.0894C10.4953 7.36364 10.0137 7.79846 10.0137 8.33484V17.0288C10.0137 17.5652 10.4953 18 11.0894 18H16.9244C17.5184 18 18 17.5652 18 17.0288V8.33484C18 7.79846 17.5184 7.36364 16.9244 7.36364Z" />
  <path d="M6.84862 12.9566H1.13765C0.509342 12.9566 0 13.4165 0 13.9838V16.9728C0 17.5401 0.509342 18 1.13765 18H6.84862C7.47692 18 7.98626 17.5401 7.98626 16.9728V13.9838C7.98626 13.4165 7.47692 12.9566 6.84862 12.9566Z" />
  <path d="M1.07562 10.7894H6.91064C7.50469 10.7894 7.98626 10.3546 7.98626 9.81818V0.971205C7.98626 0.434824 7.50469 0 6.91064 0H1.07562C0.481572 0 0 0.434824 0 0.971205V9.81818C0 10.3546 0.481572 10.7894 1.07562 10.7894Z" />
  <path d="M11.1514 5.04338H16.8623C17.4906 5.04338 18 4.58349 18 4.01618V1.02721C18 0.459896 17.4906 0 16.8623 0H11.1514C10.5231 0 10.0137 0.459896 10.0137 1.02721V4.01618C10.0137 4.58349 10.5231 5.04338 11.1514 5.04338Z" />
</svg>