<svg xmlns="http://www.w3.org/2000/svg" width="16" height="18" viewBox="0 0 16 18" fill="none">
  <path d="M12.4444 1.36252H12.2266V0.924305C12.2266 0.413904 11.829 0 11.3377 0C10.8464 0 10.4488 0.413904 10.4488 0.924305V1.36252H5.5512V0.924305C5.5512 0.413904 5.1536 0 4.66231 0C4.17102 0 3.77342 0.413904 3.77342 0.924305V1.36252H3.55547C1.59458 1.36252 0 3.02118 0 5.05974V14.3028C0 16.3419 1.59458 18 3.55556 18H12.4444C14.4054 18 16 16.3419 16 14.3028V5.05974C16 3.02109 14.4054 1.36252 12.4444 1.36252ZM6.22222 13.8406H2.66667C2.17538 13.8406 1.77778 13.4272 1.77778 12.9163C1.77778 12.4055 2.17538 11.992 2.66667 11.992H6.22222C6.71351 11.992 7.11111 12.4055 7.11111 12.9163C7.11111 13.4272 6.71351 13.8406 6.22222 13.8406ZM8.30204 11.0677H2.66667C2.17538 11.0677 1.77778 10.6538 1.77778 10.1434C1.77778 9.63301 2.17538 9.21911 2.66667 9.21911H8.30204C8.79333 9.21911 9.19093 9.63301 9.19093 10.1434C9.19093 10.6538 8.79333 11.0677 8.30204 11.0677ZM14.2222 5.52189H1.77778V5.05974C1.77778 4.04023 2.57556 3.21113 3.55556 3.21113H12.4444C13.4244 3.21113 14.2222 4.04023 14.2222 5.05974V5.52189Z" />
</svg>