<svg width="408" height="710" viewBox="0 0 485 844" fill="none" xmlns="http://www.w3.org/2000/svg">
<path fill-rule="evenodd" clip-rule="evenodd" d="M484.3 0H0V415.712V844H484.3V843.869C484.301 843.913 484.302 843.956 484.302 844V0C484.302 0.041176 484.301 0.0823452 484.3 0.123507V0ZM484.3 0.123507C482.791 77.7725 422.521 131.065 344.598 137.411L264.652 143.916C250.252 145.085 235.897 147.011 221.719 149.841C211.927 151.801 202.2 154.195 192.63 157.075C91.1628 187.604 0 284.55 0 415.712C0 535.469 74.0698 635.032 174.937 669.817C203.87 679.791 234.161 685.277 264.631 687.972L345.667 695.145C423.165 702.002 482.878 766.29 484.3 843.869V0.123507Z" fill="#231D46"/>
</svg>
