<svg xmlns="http://www.w3.org/2000/svg" width="12" height="14" viewBox="0 0 12 14" fill="none">
  <g clip-path="url(#clip0_500_13203)">
    <path d="M3.45354 0.0102994C3.72985 -0.0212393 3.93 0.00846148 4.06864 0.259209C4.26567 0.991907 5.10993 2.28067 5.16319 2.97405C5.2248 3.77618 3.86339 4.31094 3.73518 5.17771C3.54019 6.496 5.46512 9.79421 6.92414 10.0771C7.84374 10.2554 8.83525 9.4406 9.63024 10.1105C10.0026 10.4242 10.7008 11.3156 11.0386 11.7294C11.4165 12.1923 11.7322 12.3775 11.2695 12.9229C10.301 14.0643 8.58904 14.2367 7.20994 13.7298C3.41851 12.3361 -0.271185 6.33792 0.640087 2.57944C0.933568 1.36901 2.09524 0.16534 3.45354 0.0102994Z" fill="#3FBEBC"/>
  </g>
  <defs>
    <clipPath id="clip0_500_13203">
      <rect width="11" height="14" fill="white" transform="translate(0.5)"/>
    </clipPath>
  </defs>
</svg>