<svg xmlns="http://www.w3.org/2000/svg" width="13" height="12" viewBox="0 0 13 12" fill="none">
  <g clip-path="url(#clip0_582_5563)">
    <path d="M6.79102 1C5.80211 1 4.83541 1.29324 4.01317 1.84265C3.19092 2.39206 2.55006 3.17295 2.17162 4.08658C1.79318 5.00021 1.69417 6.00555 1.88709 6.97545C2.08002 7.94536 2.55622 8.83627 3.25548 9.53553C3.95475 10.2348 4.84566 10.711 5.81557 10.9039C6.78547 11.0969 7.7908 10.9978 8.70444 10.6194C9.61807 10.241 10.399 9.6001 10.9484 8.77785C11.4978 7.95561 11.791 6.98891 11.791 6C11.791 5.34339 11.6617 4.69321 11.4104 4.08658C11.1591 3.47995 10.7908 2.92876 10.3266 2.46447C9.86226 2.00017 9.31106 1.63188 8.70444 1.3806C8.09781 1.12933 7.44763 1 6.79102 1ZM8.14602 6.645C8.19288 6.69148 8.23008 6.74678 8.25546 6.80771C8.28085 6.86864 8.29392 6.93399 8.29392 7C8.29392 7.06601 8.28085 7.13136 8.25546 7.19229C8.23008 7.25322 8.19288 7.30852 8.14602 7.355C8.09954 7.40186 8.04424 7.43906 7.98331 7.46445C7.92238 7.48983 7.85702 7.5029 7.79102 7.5029C7.72501 7.5029 7.65966 7.48983 7.59873 7.46445C7.5378 7.43906 7.4825 7.40186 7.43602 7.355L6.79102 6.705L6.14602 7.355C6.09954 7.40186 6.04424 7.43906 5.98331 7.46445C5.92238 7.48983 5.85702 7.5029 5.79102 7.5029C5.72501 7.5029 5.65966 7.48983 5.59873 7.46445C5.5378 7.43906 5.4825 7.40186 5.43602 7.355C5.38915 7.30852 5.35196 7.25322 5.32657 7.19229C5.30119 7.13136 5.28812 7.06601 5.28812 7C5.28812 6.93399 5.30119 6.86864 5.32657 6.80771C5.35196 6.74678 5.38915 6.69148 5.43602 6.645L6.08602 6L5.43602 5.355C5.34187 5.26085 5.28897 5.13315 5.28897 5C5.28897 4.86685 5.34187 4.73915 5.43602 4.645C5.53017 4.55085 5.65787 4.49795 5.79102 4.49795C5.92417 4.49795 6.05187 4.55085 6.14602 4.645L6.79102 5.295L7.43602 4.645C7.53017 4.55085 7.65787 4.49795 7.79102 4.49795C7.92417 4.49795 8.05187 4.55085 8.14602 4.645C8.24017 4.73915 8.29306 4.86685 8.29306 5C8.29306 5.13315 8.24017 5.26085 8.14602 5.355L7.49602 6L8.14602 6.645Z" fill="white"/>
  </g>
  <defs>
    <clipPath id="clip0_582_5563">
      <rect width="12" height="12" fill="white" transform="translate(0.791016)"/>
    </clipPath>
  </defs>
</svg>