<svg xmlns="http://www.w3.org/2000/svg" width="12" height="13" viewBox="0 0 12 13" fill="none">
  <path d="M6 11.5C6.98891 11.5 7.95561 11.2068 8.77785 10.6573C9.6001 10.1079 10.241 9.32705 10.6194 8.41342C10.9978 7.49979 11.0969 6.49446 10.9039 5.52455C10.711 4.55465 10.2348 3.66373 9.53553 2.96447C8.83627 2.26521 7.94536 1.789 6.97545 1.59608C6.00555 1.40315 5.00021 1.50217 4.08658 1.8806C3.17295 2.25904 2.39206 2.89991 1.84265 3.72215C1.29324 4.5444 1 5.5111 1 6.5C1 7.82608 1.52678 9.09785 2.46447 10.0355C2.92876 10.4998 3.47995 10.8681 4.08658 11.1194C4.69321 11.3707 5.34339 11.5 6 11.5ZM4.1465 6.1465C4.19291 6.10005 4.24801 6.06321 4.30867 6.03807C4.36933 6.01293 4.43434 5.99998 4.5 5.99998C4.56566 5.99998 4.63067 6.01293 4.69133 6.03807C4.75199 6.06321 4.80709 6.10005 4.8535 6.1465L5.5 6.79295L7.1465 5.1465C7.2408 5.05542 7.3671 5.00503 7.4982 5.00617C7.6293 5.0073 7.75471 5.05989 7.84741 5.15259C7.94011 5.2453 7.9927 5.3707 7.99384 5.5018C7.99498 5.6329 7.94458 5.7592 7.8535 5.8535L5.8535 7.8535C5.80709 7.89995 5.75198 7.93679 5.69133 7.96192C5.63067 7.98706 5.56566 8 5.5 8C5.43434 8 5.36933 7.98706 5.30867 7.96192C5.24802 7.93679 5.19291 7.89995 5.1465 7.8535L4.1465 6.8535C4.10005 6.80709 4.0632 6.75199 4.03806 6.69133C4.01292 6.63068 3.99998 6.56566 3.99998 6.5C3.99998 6.43434 4.01292 6.36933 4.03806 6.30867C4.0632 6.24802 4.10005 6.19291 4.1465 6.1465Z" fill="white"/>
</svg>