<svg xmlns="http://www.w3.org/2000/svg" width="16" height="16" viewBox="0 0 16 16" fill="none">
  <path fill-rule="evenodd" clip-rule="evenodd" d="M7.99301 1.33301C4.31301 1.33301 1.33301 4.31967 1.33301 7.99967C1.33301 11.6797 4.31301 14.6663 7.99301 14.6663C11.6797 14.6663 14.6663 11.6797 14.6663 7.99967C14.6663 4.31967 11.6797 1.33301 7.99301 1.33301ZM7.99967 13.333C5.05301 13.333 2.66634 10.9463 2.66634 7.99967C2.66634 5.05301 5.05301 2.66634 7.99967 2.66634C10.9463 2.66634 13.333 5.05301 13.333 7.99967C13.333 10.9463 10.9463 13.333 7.99967 13.333ZM7.33301 8.71301L10.4183 10.5619C10.7353 10.7519 11.1463 10.6479 11.3348 10.33C11.5219 10.0145 11.4191 9.60709 11.1046 9.41814L8.66634 7.95301V4.94634C8.66634 4.57815 8.36786 4.27967 7.99967 4.27967C7.63148 4.27967 7.33301 4.57815 7.33301 4.94634V8.71301Z" fill="#ACAEE5"/>
  <path fill-rule="evenodd" clip-rule="evenodd" d="M7.33301 8.71361L10.4183 10.5625C10.7353 10.7525 11.1463 10.6485 11.3348 10.3306C11.5219 10.0151 11.4191 9.60768 11.1046 9.41874L8.66634 7.95361V4.94694C8.66634 4.57875 8.36786 4.28027 7.99967 4.28027C7.63148 4.28027 7.33301 4.57875 7.33301 4.94694V8.71361Z" fill="#ACAEE5"/>
</svg>