<svg xmlns="http://www.w3.org/2000/svg" width="24" height="24" viewBox="0 0 24 24" fill="none">
  <g clip-path="url(#clip0_520_22629)">
    <path d="M13.6434 11.998L18.6552 6.99784C18.8747 6.77837 18.998 6.48069 18.998 6.17031C18.998 5.85992 18.8747 5.56225 18.6552 5.34278C18.4358 5.1233 18.1381 5 17.8277 5C17.5173 5 17.2196 5.1233 17.0002 5.34278L12 10.3546L6.99983 5.34278C6.78036 5.1233 6.48268 5 6.1723 5C5.86191 5 5.56424 5.1233 5.34476 5.34278C5.12529 5.56225 5.00199 5.85992 5.00199 6.17031C5.00199 6.48069 5.12529 6.77837 5.34476 6.99784L10.3566 11.998L5.34476 16.9982C5.23552 17.1065 5.14881 17.2354 5.08964 17.3775C5.03047 17.5195 5 17.6718 5 17.8257C5 17.9796 5.03047 18.1319 5.08964 18.274C5.14881 18.416 5.23552 18.5449 5.34476 18.6532C5.45312 18.7625 5.58203 18.8492 5.72406 18.9084C5.86609 18.9675 6.01843 18.998 6.1723 18.998C6.32616 18.998 6.47851 18.9675 6.62054 18.9084C6.76257 18.8492 6.89148 18.7625 6.99983 18.6532L12 13.6414L17.0002 18.6532C17.1085 18.7625 17.2374 18.8492 17.3795 18.9084C17.5215 18.9675 17.6738 18.998 17.8277 18.998C17.9816 18.998 18.1339 18.9675 18.2759 18.9084C18.418 18.8492 18.5469 18.7625 18.6552 18.6532C18.7645 18.5449 18.8512 18.416 18.9104 18.274C18.9695 18.1319 19 17.9796 19 17.8257C19 17.6718 18.9695 17.5195 18.9104 17.3775C18.8512 17.2354 18.7645 17.1065 18.6552 16.9982L13.6434 11.998Z" />
  </g>
  <defs>
    <clipPath id="clip0_520_22629">
      <rect width="24" height="24" fill="white"/>
    </clipPath>
  </defs>
</svg>