<svg xmlns="http://www.w3.org/2000/svg" width="16" height="16" viewBox="0 0 16 16" fill="none">
  <path d="M14.1663 7.99967C14.1663 11.4054 11.4054 14.1663 7.99967 14.1663C4.59392 14.1663 1.83301 11.4054 1.83301 7.99967C1.83301 4.59392 4.59392 1.83301 7.99967 1.83301C11.4054 1.83301 14.1663 4.59392 14.1663 7.99967Z" stroke="#ACAEE5"/>
  <path d="M11.4187 5.58664C11.5147 5.6828 11.5687 5.81314 11.5687 5.94903C11.5687 6.08493 11.5147 6.21527 11.4187 6.31143L7.31615 10.414C7.22007 10.5102 7.08972 10.5643 6.95375 10.5644H6.91956C6.84611 10.5581 6.77476 10.5366 6.71003 10.5013C6.6453 10.466 6.5886 10.4176 6.5435 10.3593L4.49221 7.62425C4.41061 7.51544 4.37557 7.37867 4.3948 7.24403C4.41404 7.10939 4.48597 6.9879 4.59478 6.9063C4.70359 6.82469 4.84035 6.78965 4.97499 6.80889C5.10964 6.82812 5.23112 6.90006 5.31273 7.00886L7.00845 9.27211L10.7349 5.58664C10.829 5.50255 10.9507 5.45605 11.0768 5.45605C11.203 5.45605 11.3247 5.50255 11.4187 5.58664Z" fill="#ACAEE5"/>
</svg>