<svg xmlns="http://www.w3.org/2000/svg" width="17" height="16" viewBox="0 0 17 16" fill="none">
  <path fill-rule="evenodd" clip-rule="evenodd" d="M5.6155 7.05366C4.922 7.17954 4.2775 7.51372 3.772 8.01873C3.1175 8.67261 2.75 9.55926 2.75 10.4839V12.5014C2.75 13.3291 3.4215 14 4.25 14C6.342 14 11.158 14 13.25 14C14.0785 14 14.75 13.3291 14.75 12.5014V10.4839C14.75 9.55926 14.3825 8.67261 13.728 8.01873C13.2225 7.51372 12.578 7.17954 11.8845 7.05366C12.1185 6.58461 12.25 6.05611 12.25 5.49665C12.25 3.567 10.6815 2 8.75 2C6.8185 2 5.25 3.567 5.25 5.49665C5.25 6.05611 5.3815 6.58461 5.6155 7.05366ZM11.747 8.04471V9.08321C12.329 9.28901 12.747 9.84448 12.747 10.4969C12.747 11.0468 12.749 11.4934 12.749 11.4934C12.7505 11.7691 12.5275 11.9939 12.2515 11.9954C11.9755 11.9964 11.7505 11.7736 11.749 11.4984C11.749 11.4984 11.747 11.0493 11.747 10.4969C11.747 10.2211 11.524 9.99734 11.2485 9.99734C10.973 9.99734 10.75 10.2211 10.75 10.4969L10.749 11.4964C10.7485 11.7721 10.5245 11.9959 10.2485 11.9954C9.9725 11.9949 9.7485 11.7711 9.749 11.4954C9.749 11.4954 9.75 10.4964 9.75 10.4969C9.75 9.84548 10.1665 9.29101 10.747 9.08421V8.3684C10.1805 8.76252 9.492 8.9933 8.75 8.9933C8.0055 8.9933 7.3145 8.76052 6.747 8.3639V9.08371C7.3295 9.28951 7.747 9.84498 7.747 10.4969C7.747 11.3241 7.075 11.9954 6.247 11.9954C5.419 11.9954 4.747 11.3241 4.747 10.4969C4.747 9.84498 5.1645 9.28951 5.747 9.08371V8.04571C5.27 8.14211 4.8285 8.37639 4.4795 8.72505C4.0125 9.19161 3.75 9.8245 3.75 10.4839V12.5014C3.75 12.7772 3.974 13.001 4.25 13.001H13.25C13.526 13.001 13.75 12.7772 13.75 12.5014V10.4839C13.75 9.8245 13.4875 9.19161 13.021 8.72505C12.6705 8.37489 12.226 8.14012 11.747 8.04471ZM6.247 9.99734C6.523 9.99734 6.747 10.2211 6.747 10.4969C6.747 10.7726 6.523 10.9964 6.247 10.9964C5.971 10.9964 5.747 10.7726 5.747 10.4969C5.747 10.2211 5.971 9.99734 6.247 9.99734ZM8.75 2.99904C10.13 2.99904 11.25 4.11847 11.25 5.49665C11.25 6.87533 10.13 7.99426 8.75 7.99426C7.37 7.99426 6.25 6.87533 6.25 5.49665C6.25 4.11847 7.37 2.99904 8.75 2.99904Z" fill="#ACAEE5"/>
</svg>