<svg width="24" height="24" viewBox="0 0 24 24" fill="none" xmlns="http://www.w3.org/2000/svg">
<path d="M11.6955 16.9382C11.7916 16.9776 11.8952 16.999 12.0011 16.999C12.1065 16.999 12.2099 16.9774 12.3062 16.9383L12.3071 16.938C12.4046 16.8979 12.4922 16.8394 12.5662 16.7667L12.5675 16.7654L17.3675 11.9654C17.6796 11.6533 17.6796 11.1467 17.3675 10.8346L17.2261 10.976L17.3675 10.8346C17.0554 10.5225 16.5487 10.5225 16.2366 10.8346L16.3781 10.976L16.2366 10.8346L12.802 14.2692L12.8001 2.60001C12.8001 2.6 12.8001 2.59999 12.8001 2.59998C12.8001 2.15853 12.4415 1.8 12.0001 1.8C11.5586 1.8 11.2001 2.15855 11.2001 2.60001V14.2692L7.7655 10.8346C7.4534 10.5225 6.94678 10.5225 6.63467 10.8346C6.32255 11.1467 6.32257 11.6533 6.63466 11.9654L6.63467 11.9654L11.4347 16.7654C11.5085 16.8392 11.5969 16.8981 11.6955 16.9382ZM11.6955 16.9382C11.6954 16.9381 11.6952 16.938 11.6951 16.938L11.7711 16.753L11.6959 16.9383C11.6958 16.9383 11.6956 16.9382 11.6955 16.9382Z" stroke-width="0.4"/>
<path d="M22.3999 13.0002C21.9584 13.0002 21.5999 13.3587 21.5999 13.8002V18.6002C21.5999 19.4817 20.8814 20.2002 19.9999 20.2002H3.99999C3.11846 20.2002 2.40002 19.4817 2.40002 18.6002V13.8002C2.40002 13.3587 2.04147 13.0002 1.60001 13.0002C1.15855 13.0002 0.8 13.3587 0.8 13.8002V18.6002C0.8 20.3646 2.23553 21.8002 4.00005 21.8002H20C21.7644 21.8002 23.2 20.3647 23.2 18.6002V13.8002C23.2 13.3587 22.8413 13.0002 22.3999 13.0002Z" stroke-width="0.4"/>
</svg>
