<svg xmlns="http://www.w3.org/2000/svg" width="15" height="15" viewBox="0 0 13 13" fill="none">
  <path d="M10.8364 1.01684L12.5384 2.63378L12.601 2.65004C13.5733 1.7264 12.614 0.160491 11.2947 0.56563C11.1324 0.615312 10.6606 0.820366 10.8364 1.01684ZM11.5638 10.7912V5.04338C11.1417 5.45078 10.6263 5.83921 10.3136 6.33061L10.3109 10.3847C10.2724 10.7542 10.0706 11.0265 9.70967 11.153L1.95915 11.1543C1.66876 11.0947 1.37744 10.7704 1.35842 10.4755L1.35657 3.3054C1.36817 2.89213 1.72535 2.61616 2.12383 2.56287L7.59669 2.56197L7.69318 2.52041C8.00676 2.14418 8.50636 1.80905 8.80417 1.43598C8.84035 1.39081 8.89417 1.37862 8.87329 1.30048L2.21521 1.29867C1.09262 1.32487 0.170425 2.12747 0.0604857 3.21778C0.202897 5.88257 -0.131561 7.78948 0.0577024 10.4321C0.137954 11.555 0.969692 12.3558 2.12243 12.4384C4.82918 12.6322 6.90133 12.2943 9.63359 12.4312C10.4899 12.3743 11.4293 11.6263 11.5638 10.7912ZM10.3879 1.54257L10.2329 1.4432L4.49472 6.98552L3.93157 9.19007C4.01229 9.29395 4.05821 9.3337 4.19784 9.3188C4.40612 9.29712 6.19345 8.83913 6.32009 8.7619L12.0073 3.23946L11.9841 3.12564L10.3879 1.54257Z" />
  <path d="M11.5638 10.7912C11.4293 11.6263 10.4899 12.3743 9.63359 12.4312C6.90133 12.2943 4.82918 12.6322 2.12243 12.4384C0.969692 12.3558 0.137954 11.555 0.0577024 10.4321C-0.131561 7.78948 0.202897 5.88257 0.0604857 3.21778C0.170425 2.12747 1.09262 1.32487 2.21521 1.29867L8.87329 1.30048C8.89417 1.37862 8.84035 1.39081 8.80417 1.43598C8.50636 1.80905 8.00676 2.14418 7.69318 2.52041L7.59669 2.56197L2.12383 2.56287C1.72535 2.61616 1.36817 2.89213 1.35657 3.3054L1.35842 10.4755C1.37744 10.7704 1.66876 11.0947 1.95915 11.1543L9.70967 11.153C10.0706 11.0265 10.2724 10.7542 10.3109 10.3847L10.3136 6.33061C10.6263 5.83921 11.1417 5.45078 11.5638 5.04338V10.7912Z" />
  <path d="M10.3879 1.54257L11.9841 3.12564L12.0073 3.23946L6.32009 8.7619C6.19345 8.83913 4.40612 9.29712 4.19784 9.3188C4.05821 9.3337 4.01229 9.29395 3.93157 9.19007L4.49472 6.98552L10.2329 1.4432L10.3879 1.54257Z" />
  <path d="M10.8364 1.01684C10.6606 0.820366 11.1324 0.615312 11.2947 0.56563C12.614 0.160491 13.5733 1.7264 12.601 2.65004L12.5384 2.63378L10.8364 1.01684Z" />
</svg>