<svg xmlns="http://www.w3.org/2000/svg" width="18" height="12" viewBox="0 0 18 12" fill="none">
  <path d="M17.0522 2.29787V11.0426C16.8951 11.5601 16.6113 11.8429 16.1008 12H1.00374C0.489368 11.8419 0.208386 11.5563 0.0522461 11.0426V2.23404C0.210815 1.88304 0.411587 1.7422 0.797284 1.89965L7.96635 7.3236C8.43867 7.45836 9.01097 7.46927 9.42274 7.16318L16.3072 1.89964C16.7293 1.73914 16.928 1.89986 17.0522 2.29787Z" fill="#898DDA"/>
  <path d="M15.6567 0L15.9468 0.122923C16.1273 0.360057 15.7157 0.684377 15.5599 0.828076C13.7619 2.48632 11.4769 3.88062 9.65155 5.54235C9.02457 6.02449 8.03107 6.01291 7.41609 5.51561C5.61318 3.85052 3.27739 2.4616 1.51027 0.798811C1.31681 0.616768 1.02692 0.413177 1.15769 0.122923L1.44777 0H15.6567Z" fill="#898DDA"/>
</svg>