<svg xmlns="http://www.w3.org/2000/svg" width="14" height="16" viewBox="0 0 14 16" fill="none">
  <path d="M13.4993 8.9375C13.227 8.9375 12.9774 9.22745 12.9774 9.60438V10.6385C12.9774 10.8995 12.8186 11.1024 12.6143 11.1024H2.28191C2.07768 11.1024 1.91883 10.8995 1.91883 10.6385V9.60438C1.91883 9.22745 1.66922 8.9375 1.39692 8.9375C1.12461 8.9375 0.875 9.22745 0.875 9.60438V13.7313C0.875 14.7171 1.48769 15.5 2.25921 15.5H12.6143C13.3859 15.5 13.9986 14.7171 13.9986 13.7313V9.60438C14.0213 9.22745 13.7716 8.9375 13.4993 8.9375Z" fill="#231D46"/>
  <path d="M10.7495 6.04019L7.34437 9.28318M7.34437 9.28318L3.93923 6.04019M7.34437 9.28318L7.34437 1.5" stroke="#231D46" stroke-width="2" stroke-linecap="round" stroke-linejoin="round"/>
</svg>