<svg width="13" height="13" viewBox="0 0 13 13" fill="none" xmlns="http://www.w3.org/2000/svg">
<g clip-path="url(#clip0_604_6311)">
<path d="M12.1642 6.29C11.1792 4.155 8.9592 2 6.2092 2C3.4592 2 1.2392 4.155 0.254198 6.29C0.224535 6.35604 0.209198 6.42761 0.209198 6.5C0.209198 6.57239 0.224535 6.64396 0.254198 6.71C1.2392 8.845 3.4592 11 6.2092 11C8.9592 11 11.1792 8.845 12.1642 6.71C12.1939 6.64396 12.2092 6.57239 12.2092 6.5C12.2092 6.42761 12.1939 6.35604 12.1642 6.29ZM6.2092 9C5.71474 9 5.2314 8.85338 4.82027 8.57867C4.40915 8.30397 4.08872 7.91352 3.8995 7.45671C3.71028 6.99989 3.66077 6.49723 3.75723 6.01227C3.8537 5.52732 4.0918 5.08186 4.44143 4.73223C4.79106 4.3826 5.23652 4.1445 5.72147 4.04804C6.20642 3.95157 6.70909 4.00108 7.16591 4.1903C7.62272 4.37952 8.01317 4.69995 8.28787 5.11107C8.56258 5.5222 8.7092 6.00555 8.7092 6.5C8.7084 7.1628 8.44476 7.79822 7.97609 8.26689C7.50742 8.73556 6.872 8.99921 6.2092 9Z" fill="#CCCCCC"/>
<path d="M6.2092 8C7.03763 8 7.7092 7.32843 7.7092 6.5C7.7092 5.67157 7.03763 5 6.2092 5C5.38077 5 4.7092 5.67157 4.7092 6.5C4.7092 7.32843 5.38077 8 6.2092 8Z" fill="#CCCCCC"/>
</g>
<defs>
<clipPath id="clip0_604_6311">
<rect width="12" height="12" fill="white" transform="translate(0.209198 0.5)"/>
</clipPath>
</defs>
</svg>
