<svg xmlns="http://www.w3.org/2000/svg" width="15" height="14" viewBox="0 0 15 14" fill="none">
  <path fill-rule="evenodd" clip-rule="evenodd" d="M2.34113 1.5C2.56948 0.637762 3.37428 0 4.3309 0C5.28751 0 6.09232 0.637762 6.32067 1.5H13.6911C13.9745 1.5 14.2047 1.72403 14.2047 1.99999C14.2047 2.27595 13.9745 2.5 13.6911 2.5H6.32067C6.09232 3.36222 5.28752 4 4.3309 4C3.37428 4 2.56948 3.36222 2.34113 2.5H0.735338C0.451844 2.5 0.22168 2.27595 0.22168 1.99999C0.22168 1.72404 0.451844 1.5 0.735338 1.5H2.34113Z" />
  <path fill-rule="evenodd" clip-rule="evenodd" d="M2.35811 11.5H0.752315C0.468821 11.5 0.238658 11.724 0.238658 12C0.238658 12.276 0.468822 12.5 0.752315 12.5H2.35811C2.58647 13.3622 3.39127 14 4.34789 14C5.30451 14 6.10929 13.3622 6.33765 12.5H13.708C13.9915 12.5 14.2217 12.276 14.2217 12C14.2217 11.724 13.9915 11.5 13.708 11.5H6.33765C6.10929 10.6378 5.3045 10 4.34789 10C3.39127 10 2.58647 10.6378 2.35811 11.5Z" />
  <path fill-rule="evenodd" clip-rule="evenodd" d="M7.05718 6.5H0.735338C0.451844 6.5 0.22168 6.72404 0.22168 7C0.22168 7.27596 0.451844 7.5 0.735338 7.5H7.05718C7.28553 8.36223 8.09033 9.00001 9.04694 9.00001C10.0036 9.00001 10.8084 8.36223 11.0367 7.5H13.6911C13.9745 7.5 14.2047 7.27596 14.2047 7C14.2047 6.72404 13.9745 6.5 13.6911 6.5H11.0367C10.8084 5.63777 10.0036 5 9.04694 5C8.09033 5 7.28553 5.63777 7.05718 6.5Z" />
</svg>