<svg width="16" height="16" viewBox="0 0 16 16" fill="none" xmlns="http://www.w3.org/2000/svg">
<g id="Vector">
<path id="Vector_2" d="M8 0C3.58187 0 0 3.58187 0 8C0 12.4181 3.58187 16 8 16C12.4181 16 16 12.4181 16 8C16 3.58187 12.4181 0 8 0ZM12.5269 10.6667C12.6699 9.99253 12.7605 9.2768 12.7893 8.53333H14.9131C14.8576 9.2704 14.6859 9.98507 14.4021 10.6667H12.5269ZM3.47307 5.33333C3.33013 6.00747 3.23947 6.7232 3.21067 7.46667H1.08693C1.1424 6.7296 1.31413 6.01493 1.59787 5.33333H3.47307ZM11.4336 5.33333C11.5936 6.016 11.6907 6.73067 11.7216 7.46667H8.53333V5.33333H11.4336ZM8.53333 4.26667V1.14453C8.77653 1.21493 9.0176 1.3344 9.25333 1.5008C9.696 1.81333 10.1205 2.2944 10.4789 2.89173C10.7275 3.3056 10.9419 3.76533 11.12 4.26667H8.53333ZM5.52107 2.89173C5.87947 2.29333 6.304 1.81227 6.74667 1.5008C6.98347 1.3344 7.22347 1.21493 7.46667 1.14453V4.26667H4.87893C5.05813 3.76533 5.2736 3.3056 5.52107 2.89173ZM7.46667 5.33333V7.46667H4.2784C4.30933 6.73067 4.4064 6.016 4.5664 5.33333H7.46667ZM1.59787 10.6667C1.31413 9.98507 1.1424 9.2704 1.08693 8.53333H3.21067C3.24053 9.2768 3.33013 9.99253 3.47307 10.6667H1.59787ZM4.2784 8.53333H7.46667V10.6667H4.5664C4.4064 9.984 4.30933 9.26933 4.2784 8.53333ZM7.46667 11.7333V14.8555C7.22347 14.7851 6.9824 14.6656 6.74667 14.4992C6.304 14.1867 5.87947 13.7056 5.52107 13.1083C5.27253 12.6944 5.05813 12.2347 4.87893 11.7333H7.46667ZM10.48 13.1083C10.1216 13.7067 9.69707 14.1877 9.2544 14.4992C9.0176 14.6656 8.7776 14.7851 8.5344 14.8555V11.7333H11.1221C10.9429 12.2347 10.7285 12.6944 10.48 13.1083ZM8.53333 10.6667V8.53333H11.7216C11.6907 9.26933 11.5936 9.984 11.4336 10.6667H8.53333ZM12.7893 7.46667C12.7595 6.7232 12.6699 6.00747 12.5269 5.33333H14.4021C14.6869 6.01493 14.8576 6.7296 14.9131 7.46667H12.7893ZM13.8443 4.26667H12.2464C11.936 3.28747 11.5072 2.4288 10.9909 1.74293C11.7003 2.08213 12.3424 2.53653 12.9024 3.0976C13.2608 3.456 13.5755 3.8464 13.8443 4.26667ZM3.0976 3.0976C3.65867 2.53653 4.3008 2.08213 5.00907 1.74293C4.49387 2.4288 4.064 3.28747 3.7536 4.26667H2.15573C2.42453 3.8464 2.7392 3.45493 3.0976 3.0976ZM2.15573 11.7333H3.7536C4.064 12.7125 4.4928 13.5712 5.00907 14.2571C4.29973 13.9179 3.6576 13.4635 3.0976 12.9024C2.7392 12.544 2.42453 12.1536 2.15573 11.7333ZM12.9024 12.9024C12.3413 13.4635 11.6992 13.9179 10.9909 14.2571C11.5061 13.5712 11.936 12.7125 12.2464 11.7333H13.8443C13.5755 12.1536 13.2608 12.5451 12.9024 12.9024Z" fill="currentColor"/>
</g>
</svg>
