<svg xmlns="http://www.w3.org/2000/svg" width="150" height="34" viewBox="0 0 150 34" fill="none">
  <path d="M50.6287 19.4068C48.6765 20.4293 46.9069 19.9367 45.5371 21.2543C45.1965 21.582 45.0602 22.0684 45.1754 22.5264C45.4223 23.5084 46.0733 25.22 47.696 25.9615C48.4275 26.2902 51.2816 27.3254 53.3719 24.6355C53.5413 24.4174 53.8899 24.5325 53.8899 24.8085V27.1113C53.8899 27.1113 52.5399 28.6971 48.2121 28.6971C43.0109 28.6971 39.4375 24.6136 39.4375 19.0632C39.4375 13.5921 42.3359 8.55718 47.8548 8.51755C52.3244 8.47379 54.0774 12.6778 53.5454 15.8902C53.2737 17.5311 52.1038 18.6343 50.6287 19.4068ZM47.5372 10.1033C44.5471 10.3408 44.6102 17.1406 44.6906 19.0966C44.6988 19.2948 44.9326 19.3933 45.0821 19.2627C46.2166 18.2719 47.9493 18.7518 49.6621 16.2119C50.6795 14.7032 50.5547 9.86542 47.5372 10.1033ZM146.738 19.4068C144.787 20.4293 143.016 19.9367 141.647 21.2543C141.306 21.582 141.17 22.0684 141.285 22.5264C141.532 23.5084 142.183 25.22 143.806 25.9615C144.537 26.2902 147.392 27.3254 149.482 24.6355C149.651 24.4174 150 24.5325 150 24.8085V27.1113C150 27.1113 148.65 28.6971 144.322 28.6971C139.121 28.6971 135.547 24.6136 135.547 19.0632C135.547 13.5921 138.445 8.55718 143.964 8.51755C148.435 8.47379 150.187 12.6778 149.655 15.8902C149.384 17.5311 148.214 18.6343 146.738 19.4068ZM143.647 10.1033C140.656 10.3408 140.72 17.1406 140.8 19.0966C140.808 19.2948 141.043 19.3933 141.192 19.2627C142.326 18.2719 144.059 18.7518 145.772 16.2119C146.79 14.7032 146.664 9.86542 143.647 10.1033ZM101.705 10.9786C99.9445 9.26433 97.7927 8.42293 95.1174 8.45683C92.5082 8.48986 90.314 9.52003 88.5329 11.4806C86.8197 13.5052 85.9148 15.8537 85.9503 18.6591C85.9917 21.9303 86.9587 24.4565 88.7202 26.2374C90.4136 27.8848 92.6324 28.7255 95.3747 28.6907C97.9169 28.6584 100.111 27.6283 101.892 25.6697C103.605 23.645 104.51 21.2277 104.474 18.4244C104.434 15.2859 103.468 12.8274 101.705 10.9786ZM97.7394 24.2989C96.6887 25.7599 95.629 26.4829 94.4945 26.397C93.4279 26.3164 92.4875 25.4411 91.7364 23.8448C90.9912 22.1811 90.6709 20.2135 90.8424 17.9491C91.004 15.8187 91.6181 13.9237 92.6058 12.391C93.5945 10.8567 94.6561 10.1336 95.7217 10.2143C96.8572 10.3002 97.7956 11.1743 98.6088 12.845C99.354 14.5079 99.6123 16.4039 99.4457 18.5998C99.2742 20.8652 98.7281 22.7663 97.7394 24.2989ZM111.645 24.2521L111.603 7.89833C111.603 3.19667 109.144 3.19667 107.936 3.19667H105.41C105.155 3.19667 105.025 3.50421 105.205 3.68588C105.761 4.24715 106.478 5.36455 106.478 7.39907V24.2937C106.478 28.5377 107.962 28.4961 107.962 28.4961H112.998C113.253 28.4961 113.387 28.1882 113.207 28.0091C112.217 27.0213 111.645 25.6668 111.645 24.2521ZM74.5328 27.9745C71.7412 25.9351 70.8758 23.7375 70.4332 21.9054C69.7028 18.8818 67.4613 17.0603 64.2727 17.1295C67.9078 15.2574 70.3178 11.7678 70.5367 11.4177C70.7772 11.0311 71.0394 10.6548 71.1054 10.2041C71.1774 9.71411 71.0985 9.1697 70.3947 9.1697C69.1577 9.1697 66.994 9.17384 66.994 9.17384C66.7851 11.2578 64.941 14.2425 61.7072 16.2388C61.5357 16.3447 61.3177 16.2634 61.3172 16.0621L61.2955 7.89833C61.2955 3.19667 58.837 3.19667 57.6287 3.19667H55.103C54.8471 3.19667 54.7172 3.50422 54.8973 3.68579C55.4541 4.24715 56.1702 5.36455 56.1702 7.39907L56.1642 24.2937C56.1642 28.5377 57.6492 28.4961 57.6492 28.4961H62.6852C62.939 28.4961 63.0734 28.1882 62.8937 28.0091C61.982 27.0998 61.4261 25.8797 61.3432 24.5882H61.3492C61.342 24.4766 61.3237 18.9886 61.3237 18.9886C61.3231 18.7514 61.4871 18.542 61.7198 18.4941C62.8496 18.2612 64.6624 19.415 65.7301 22.4067C67.0443 26.0902 68.1562 28.2893 70.305 28.4961H74.3642C74.6442 28.4961 74.7585 28.1396 74.5328 27.9745ZM117.404 2.27828C116.029 2.31988 114.904 3.4433 114.904 4.8163C114.904 6.231 116.071 7.35441 117.487 7.35441C118.905 7.31282 119.988 6.1478 119.988 4.7747C119.946 3.3601 118.779 2.27828 117.404 2.27828ZM26.8971 17.1073C23.7135 18.3617 20.098 22.6022 17.7479 20.5315C15.5747 18.6169 18.2167 15.4683 20.9625 14.2482C24.7483 12.5661 29.5695 14.1801 32.1484 9.89184C33.4413 7.742 32.8088 4.56731 30.5789 3.30845C29.2589 2.56345 27.7248 2.88371 27.2803 4.46962C27.1663 4.87643 27.1851 5.22764 27.289 5.54198C28.8749 5.8166 30.1051 7.18388 29.9701 8.71174C29.8046 10.5878 28.1993 10.8439 26.5351 11.0499C26.4599 11.0621 26.3854 11.0741 26.3128 11.0858C22.8101 11.6519 18.2447 11.8114 15.2906 14.1919C8.81365 19.4112 15.4049 26.6525 22.0098 22.8142C23.8286 21.7572 26.1368 18.3191 28.3292 18.998C31.3126 19.9217 29.9063 23.7511 27.165 26.3183C19.0257 33.9401 0.687817 26.4535 2.22297 14.589C2.7521 10.5003 5.40465 7.04372 8.2168 5.6581C10.2851 4.66253 13.0581 3.98229 15.3206 4.23611C17.2197 4.44912 18.664 5.3128 18.805 7.11971C19.2225 7.18201 19.645 7.19483 20.0737 7.1276C22.5538 6.73933 23.2443 4.06233 21.4229 2.39134C18.5268 -0.265549 11.5199 1.14688 8.3752 2.88489C-6.35274 11.0246 -0.486564 33.4826 16.8621 33.0779C23.9266 32.9133 31.2179 27.3711 32.2482 20.8909C32.7045 18.0212 30.3106 15.7622 26.8971 17.1073ZM80.9163 22.9497L80.8847 11.2668C82.039 11.2577 83.0917 11.4838 84.0429 12.277V9.10612H80.8788L80.8729 6.75214C80.8729 3.34956 78.4145 3.34956 77.206 3.34956H74.7762C74.5111 3.34956 74.3829 3.68105 74.585 3.85326C75.1212 4.31082 75.7472 5.09319 75.7472 6.25288V9.10612H73.1685V10.316C73.1685 10.316 73.1764 10.3147 73.1912 10.3126C74.5436 10.1281 75.7472 11.1845 75.7472 12.5478V23.1475C75.8142 25.9808 77.415 28.3716 80.2765 28.8447C83.4141 29.3632 85.3303 27.2588 85.3303 27.2588V24.0078C83.2258 27.6553 80.9163 25.8364 80.9163 22.9497ZM121.061 24.2521L121.019 13.8728C121.019 9.17118 118.561 9.17118 117.352 9.17118H114.827C114.57 9.17118 114.441 9.47872 114.621 9.66029C115.178 10.2217 115.894 11.3391 115.894 13.3736V24.2937C115.894 28.5377 117.379 28.4961 117.379 28.4961H122.415C122.669 28.4961 122.803 28.1882 122.624 28.0091C121.633 27.0213 121.061 25.6668 121.061 24.2521ZM137.546 6.29438C137.067 4.70876 135.198 2.8564 131.846 2.92048C128.021 2.99362 125.163 5.67012 125.163 10.3294L125.165 13.1588H125.167L125.187 24.2937C125.187 28.5377 126.672 28.4961 126.672 28.4961H131.708C131.961 28.4961 132.096 28.1882 131.916 28.0091C130.925 27.0213 130.354 25.6668 130.354 24.2521L130.356 14.3155C131.448 14.3279 132.448 14.5678 133.356 15.3248V12.154H130.355L130.352 9.28C130.352 8.38094 130.419 7.65042 130.57 7.06599C130.75 5.97156 131.653 4.64971 132.765 4.78939C134.134 4.9613 134.564 6.5341 134.474 7.45604C134.381 8.40903 134.019 9.12673 133.515 9.53156L133.506 9.57424C137.663 10.1639 138.003 7.90109 137.546 6.29438Z" fill="#231D46"/>
</svg>