<svg xmlns="http://www.w3.org/2000/svg" width="12" height="14" viewBox="0 0 12 14" fill="none">
  <g clip-path="url(#clip0_500_13218)">
    <path d="M8.16159 5.021C8.03829 4.88366 7.82729 4.87244 7.6903 4.99594L4.92708 7.48616C4.26945 6.37883 4.23327 5.71158 4.31264 5.13853C4.4318 4.27832 5.69721 3.7476 5.63994 2.95154C5.59044 2.26341 4.80574 0.984399 4.62259 0.257244C4.49372 0.00839442 4.3077 -0.0210816 4.05087 0.0102245C2.78836 0.16408 1.70861 1.35865 1.43582 2.55992C0.993887 4.50616 1.36169 6.90826 2.98315 9.23803L0.610585 11.3762C0.473535 11.4997 0.462334 11.7111 0.585581 11.8485C0.651528 11.9219 0.742478 11.9593 0.833847 11.9593C0.913306 11.9593 0.993116 11.9309 1.05687 11.8735L8.13659 5.49327C8.27364 5.36977 8.28484 5.15833 8.16159 5.021Z" fill="#EC5957"/>
    <path d="M11.0904 11.8044C10.7876 11.3854 10.1627 10.4835 9.82512 10.1629C9.10441 9.47835 8.16135 10.2618 7.31168 10.0617C6.80792 9.94314 6.25498 9.40508 5.77122 8.70972L3.86816 10.4779C4.90193 11.9475 6.17546 13.1396 7.47954 13.6926C8.74732 14.2302 10.3426 14.1023 11.273 12.9943C11.7175 12.4649 11.4291 12.2731 11.0904 11.8044Z" fill="#EC5957"/>
  </g>
  <defs>
    <clipPath id="clip0_500_13218">
      <rect width="11" height="14" fill="white" transform="translate(0.5)"/>
    </clipPath>
  </defs>
</svg>