<svg width="24" height="24" viewBox="0 0 24 24" fill="none">
<g id="Notification">
<path id="notification" d="M19.3734 11.41C19.3809 9.52671 18.7288 7.7002 17.5303 6.24741C16.3319 4.79463 14.6626 3.80723 12.8122 3.45658V3.31223C12.8122 2.96421 12.674 2.63043 12.4279 2.38434C12.1818 2.13825 11.848 2 11.5 2C11.152 2 10.8182 2.13825 10.5721 2.38434C10.326 2.63043 10.1878 2.96421 10.1878 3.31223V3.43033C8.35518 3.74168 6.69164 4.69077 5.49104 6.10987C4.29044 7.52898 3.63006 9.32678 3.62661 11.1856V11.41C2.75054 11.7192 2.01204 12.3282 1.54173 13.1294C1.07142 13.9306 0.899604 14.8723 1.05669 15.788C1.21377 16.7036 1.68962 17.5342 2.40008 18.1328C3.11053 18.7314 4.00981 19.0595 4.93884 19.059H7.5633C7.5633 20.1031 7.97808 21.1044 8.71635 21.8427C9.45463 22.581 10.4559 22.9957 11.5 22.9957C12.5441 22.9957 13.5454 22.581 14.2836 21.8427C15.0219 21.1044 15.4367 20.1031 15.4367 19.059H18.0612C18.9902 19.0595 19.8895 18.7314 20.5999 18.1328C21.3104 17.5342 21.7862 16.7036 21.9433 15.788C22.1004 14.8723 21.9286 13.9306 21.4583 13.1294C20.988 12.3282 20.2495 11.7192 19.3734 11.41ZM11.5 20.3712C11.152 20.3712 10.8182 20.233 10.5721 19.9869C10.326 19.7408 10.1878 19.407 10.1878 19.059H12.8122C12.8122 19.407 12.674 19.7408 12.4279 19.9869C12.1818 20.233 11.848 20.3712 11.5 20.3712ZM18.0612 16.4345H4.93884C4.59082 16.4345 4.25706 16.2963 4.01097 16.0502C3.76488 15.8041 3.62661 15.4703 3.62661 15.1223C3.62661 14.7743 3.76488 14.4405 4.01097 14.1944C4.25706 13.9483 4.59082 13.8101 4.93884 13.8101H6.25107V11.1856C6.25107 9.79352 6.80408 8.45843 7.78844 7.47407C8.77281 6.4897 10.1079 5.9367 11.5 5.9367C11.6706 5.9367 11.8425 5.94457 12.0157 5.96162C13.3181 6.07475 14.5297 6.67598 15.4075 7.64478C16.2853 8.61359 16.7644 9.87839 16.7489 11.1856V13.8101H18.0612C18.4092 13.8101 18.7429 13.9483 18.989 14.1944C19.2351 14.4405 19.3734 14.7743 19.3734 15.1223C19.3734 15.4703 19.2351 15.8041 18.989 16.0502C18.7429 16.2963 18.4092 16.4345 18.0612 16.4345Z"/>
</g>
</svg>
