<svg xmlns="http://www.w3.org/2000/svg" width="20" height="18" viewBox="0 0 20 18" fill="none">
  <path d="M16.5039 17.9999C17.9428 17.9999 19.1093 16.8462 19.1093 15.4231C19.1093 13.9999 17.9428 12.8462 16.5039 12.8462C15.065 12.8462 13.8985 13.9999 13.8985 15.4231C13.8985 16.8462 15.065 17.9999 16.5039 17.9999Z" fill="white"/>
  <path d="M3.4961 17.9999C4.93501 17.9999 6.10148 16.8462 6.10148 15.4231C6.10148 13.9999 4.93501 12.8462 3.4961 12.8462C2.05718 12.8462 0.890709 13.9999 0.890709 15.4231C0.890709 16.8462 2.05718 17.9999 3.4961 17.9999Z" fill="white"/>
  <path d="M9.90508 5.15375C11.344 5.15375 12.5105 4.00004 12.5105 2.57687C12.5105 1.15371 11.344 0 9.90508 0C8.46616 0 7.29969 1.15371 7.29969 2.57687C7.29969 4.00004 8.46616 5.15375 9.90508 5.15375Z" fill="white"/>
  <path d="M3.69969 14.4V10.8549C3.69969 9.83046 4.80068 9 6.15881 9H13.8406C15.1987 9 16.2997 9.83046 16.2997 10.8549V14.4" stroke="white" stroke-width="1.5" stroke-miterlimit="10"/>
  <path d="M9.91531 3.52173V9.1269" stroke="white" stroke-width="1.5" stroke-miterlimit="10"/>
</svg>