<svg xmlns="http://www.w3.org/2000/svg" width="18" height="15" viewBox="0 0 18 15" fill="none">
  <g clip-path="url(#clip0_331_5429)">
    <path d="M15.8547 6.09598C16.6908 5.39902 17.1921 4.3193 17.0827 3.12829C16.9288 1.45181 15.5356 0.111881 13.8426 0.00693246C12.3136 -0.0878534 10.9811 0.798703 10.4219 2.09245C12.0314 2.60207 13.2495 4.03851 13.4078 5.76037C13.5048 6.81907 13.2021 7.86275 12.5797 8.69735C13.607 9.62151 14.2309 10.9014 14.3172 12.294H17.2401C17.6599 12.294 18.0002 11.9563 18.0002 11.5396V9.92134C18.0002 8.30603 17.1424 6.89016 15.8547 6.09598Z" />
    <path d="M11.3636 8.80106C12.1997 8.10411 12.701 7.02438 12.5916 5.83337C12.4377 4.1569 11.0445 2.81696 9.35152 2.71201C7.32933 2.58666 5.64989 4.1772 5.64989 6.15704C5.64989 7.1596 6.08091 8.06193 6.76867 8.69259C5.37837 9.46166 4.4375 10.9347 4.4375 12.6264V14.2447C4.4375 14.6613 4.77785 14.9991 5.1977 14.9991H12.749C13.1688 14.9991 13.5092 14.6613 13.5092 14.2447V12.6264C13.5092 11.0111 12.6513 9.59524 11.3636 8.80106Z" />
    <path d="M5.56009 8.53308C5.08967 7.83584 4.83058 7.00812 4.83058 6.15791C4.83058 4.23773 6.11608 2.61035 7.87773 2.0776C7.3669 0.921554 6.23293 0.0886983 4.91402 0.0069345C2.89183 -0.118421 1.21239 1.47212 1.21239 3.45196C1.21239 4.45453 1.64341 5.35685 2.33117 5.98751C0.940881 6.75658 0 8.22959 0 9.92136V11.5396C0 11.9563 0.340352 12.294 0.760198 12.294H3.6297C3.723 10.8231 4.42894 9.463 5.56009 8.53308Z" />
  </g>
  <defs>
    <clipPath id="clip0_331_5429">
      <rect width="18" height="15" fill="white"/>
    </clipPath>
  </defs>
</svg>