<svg xmlns="http://www.w3.org/2000/svg" width="22" height="16" viewBox="0 0 22 16" fill="none">
  <path d="M18.0432 0H3.95668C2.05027 0 0.5 1.59515 0.5 3.55554V12.4445C0.5 14.4054 2.05027 16 3.95676 16H18.0432C19.9497 16 21.5 14.4054 21.5 12.4445V3.55554C21.5 1.59499 19.9497 0 18.0432 0ZM6.5494 12H3.09257C2.61493 12 2.22838 11.6024 2.22838 11.1111C2.22838 10.6198 2.61493 10.2222 3.09257 10.2222H6.5494C7.02703 10.2222 7.41359 10.6198 7.41359 11.1111C7.41359 11.6024 7.02703 12 6.5494 12ZM8.57147 9.33333H3.09257C2.61493 9.33333 2.22838 8.93527 2.22838 8.44444C2.22838 7.95362 2.61493 7.55556 3.09257 7.55556H8.57147C9.0491 7.55556 9.43566 7.95362 9.43566 8.44444C9.43566 8.93527 9.0491 9.33333 8.57147 9.33333ZM19.7716 4.00002H2.22838V3.55562C2.22838 2.57515 3.00398 1.77785 3.95676 1.77785H18.0432C18.996 1.77785 19.7716 2.57515 19.7716 3.55562V4.00002ZM19.0103 12.2284H11.4524C11.0301 12.2284 10.6878 11.8821 10.6878 11.4549V8.30352C10.6878 7.87635 11.0301 7.53006 11.4524 7.53006H19.0103C19.4326 7.53006 19.7749 7.87635 19.7749 8.30352V11.4549C19.7749 11.8821 19.4326 12.2284 19.0103 12.2284Z" />
</svg>