<svg xmlns="http://www.w3.org/2000/svg" width="17" height="16" viewBox="0 0 17 16" fill="none">
  <path d="M10.7315 10.0787L10.3941 10.4141C10.3941 10.4141 9.59221 11.2115 7.40332 9.03495C5.21445 6.85852 6.01636 6.06116 6.01636 6.06116L6.22881 5.8499C6.75221 5.32951 6.80155 4.494 6.34488 3.88405L5.41085 2.63635C4.84568 1.88142 3.75359 1.78169 3.10581 2.4258L1.94314 3.58186C1.62194 3.90124 1.4067 4.31525 1.4328 4.77452C1.49958 5.94949 2.03119 8.47755 4.99759 11.4271C8.14332 14.5549 11.095 14.6792 12.302 14.5667C12.6838 14.5312 13.0158 14.3367 13.2833 14.0707L14.3356 13.0244C15.0459 12.3181 14.8456 11.1073 13.9368 10.6133L12.5216 9.84399C11.9249 9.51962 11.1979 9.61488 10.7315 10.0787Z" stroke="#ACAEE5"/>
</svg>