<svg xmlns="http://www.w3.org/2000/svg" width="16" height="14" viewBox="0 0 16 14" fill="none">
  <path d="M6.82341 2.63122C6.49639 2.9325 5.89401 3.09563 6.05633 3.65612C6.17765 4.07506 6.63195 4.17196 6.98998 3.9528C7.71848 3.50688 8.40683 2.90942 9.13283 2.4499C9.43065 2.21439 9.42228 1.76264 9.11513 1.5364L6.86416 0.0760015C6.38032 -0.187456 5.82068 0.278635 6.01964 0.79033C6.13959 1.09883 6.58899 1.23318 6.82339 1.44817C5.13765 1.72138 3.60903 2.67221 2.62781 4.0296C2.441 4.28802 1.95775 5.01958 1.96711 5.31547C1.98134 5.76533 2.49887 6.02245 2.88865 5.78244C3.08588 5.66099 3.21654 5.29219 3.3386 5.08643C4.07694 3.84182 5.37031 2.90765 6.82341 2.63122ZM13.6704 10.5788C14.9314 8.20098 14.4902 5.25778 12.6129 3.32471C12.173 2.87174 11.3218 2.20117 10.7262 1.98166C10.1315 1.76249 9.63917 2.40708 10.0212 2.87512C10.1467 3.02884 10.5894 3.21468 10.7882 3.34037C12.8636 4.65275 13.733 7.19626 12.875 9.47899C12.8232 9.61669 12.7555 9.74849 12.7012 9.88499L12.6845 9.71878C12.6964 9.47794 12.753 9.10445 12.6293 8.8911C12.4217 8.53292 11.8883 8.50722 11.6384 8.83914C11.4892 9.03739 11.5338 9.18039 11.5233 9.40478C11.4951 10.004 11.4866 10.6015 11.4748 11.2025C11.4677 11.5667 11.3486 12.0416 11.7538 12.2534C11.9912 12.3775 12.1366 12.323 12.3707 12.2509C13.0689 12.0357 13.815 11.7754 14.5023 11.5255C14.6748 11.4627 14.8552 11.4245 14.978 11.2804C15.2345 10.9794 15.1234 10.5143 14.7522 10.3662C14.4036 10.2271 14.0083 10.5045 13.6704 10.5788ZM2.78646 8.92317C3.00219 9.10998 3.16791 9.5094 3.43228 9.62486C4.0118 9.87796 4.52436 9.22097 4.1494 8.73534C3.58759 8.11139 3.11734 7.32601 2.55233 6.71522C2.26846 6.40835 1.85174 6.40482 1.59429 6.74197C1.17503 7.47943 0.607992 8.19407 0.205683 8.93411C-0.0419959 9.38971 0.254643 9.87576 0.791761 9.82185C1.20648 9.78023 1.33376 9.28009 1.55435 9.00619C1.56463 8.99343 1.55387 8.9772 1.59124 8.98624C2.14546 11.7184 4.58927 13.7761 7.42914 13.9851C8.53031 14.0661 10.0076 13.8166 10.9623 13.2568C11.5642 12.9039 11.2197 12.043 10.5408 12.1828C10.3951 12.2128 10.1433 12.3675 9.98799 12.4314C8.72679 12.9506 7.29135 12.9767 6.01194 12.4989C4.42832 11.9076 3.17806 10.5396 2.78646 8.92317Z" />
  <path d="M2.78646 8.92317C3.17806 10.5396 4.42832 11.9076 6.01194 12.4989C7.29135 12.9767 8.72679 12.9506 9.98799 12.4314C10.1433 12.3675 10.3951 12.2128 10.5408 12.1828C11.2197 12.043 11.5642 12.9039 10.9623 13.2568C10.0076 13.8166 8.53031 14.0661 7.42914 13.9851C4.58927 13.7761 2.14546 11.7184 1.59124 8.98624C1.55387 8.9772 1.56463 8.99343 1.55435 9.00619C1.33376 9.28009 1.20648 9.78023 0.791761 9.82185C0.254643 9.87576 -0.0419959 9.38971 0.205683 8.93411C0.607992 8.19407 1.17503 7.47943 1.59429 6.74197C1.85174 6.40482 2.26846 6.40835 2.55233 6.71522C3.11734 7.32601 3.58759 8.11139 4.1494 8.73534C4.52436 9.22097 4.0118 9.87796 3.43228 9.62486C3.16791 9.5094 3.00219 9.10998 2.78646 8.92317Z" />
  <path d="M13.6704 10.5788C14.0083 10.5045 14.4036 10.2271 14.7522 10.3662C15.1234 10.5143 15.2345 10.9794 14.978 11.2804C14.8552 11.4245 14.6748 11.4627 14.5023 11.5255C13.815 11.7754 13.0689 12.0357 12.3707 12.2509C12.1366 12.323 11.9912 12.3775 11.7538 12.2534C11.3486 12.0416 11.4677 11.5667 11.4748 11.2025C11.4866 10.6015 11.4951 10.004 11.5233 9.40478C11.5338 9.18039 11.4892 9.03739 11.6384 8.83914C11.8883 8.50722 12.4217 8.53292 12.6293 8.8911C12.753 9.10445 12.6964 9.47794 12.6845 9.71878L12.7012 9.88499C12.7555 9.74849 12.8232 9.61669 12.875 9.47899C13.733 7.19626 12.8636 4.65275 10.7882 3.34037C10.5894 3.21468 10.1467 3.02884 10.0212 2.87512C9.63917 2.40708 10.1315 1.76249 10.7262 1.98166C11.3218 2.20117 12.173 2.87174 12.6129 3.32471C14.4902 5.25778 14.9314 8.20098 13.6704 10.5788Z" />
  <path d="M6.82341 2.63122C5.37031 2.90765 4.07694 3.84182 3.3386 5.08643C3.21654 5.29219 3.08588 5.66099 2.88865 5.78244C2.49887 6.02245 1.98134 5.76533 1.96711 5.31547C1.95775 5.01958 2.441 4.28802 2.62781 4.0296C3.60903 2.67221 5.13765 1.72138 6.82339 1.44817C6.58899 1.23318 6.13959 1.09883 6.01964 0.79033C5.82068 0.278635 6.38032 -0.187456 6.86416 0.0760015L9.11513 1.5364C9.42228 1.76264 9.43065 2.21439 9.13283 2.4499C8.40683 2.90942 7.71848 3.50688 6.98998 3.9528C6.63195 4.17196 6.17765 4.07506 6.05633 3.65612C5.89401 3.09563 6.49639 2.9325 6.82341 2.63122Z" />
</svg>