<svg xmlns="http://www.w3.org/2000/svg" width="13" height="12" viewBox="0 0 13 12" fill="none">
  <path d="M1.00091 5.3C0.943765 3.92857 1.72091 1.04857 5.28662 0.5"  stroke-linecap="round"/>
  <path d="M3.06031 5.30003C3.02605 4.46737 3.49202 2.7188 5.63002 2.38574"  stroke-linecap="round"/>
  <path d="M12.8515 9.21529C12.6111 8.89404 12.389 8.43455 12.3889 7.89323L12.401 6.97704L12.4011 6.97066C12.4011 5.32724 11.3312 3.93532 9.83874 3.40229C9.97885 3.17446 10.0648 2.91079 10.0648 2.62435C10.0648 1.77635 9.35708 1.09998 8.49804 1.09998C7.63901 1.09998 6.93133 1.77635 6.93133 2.62435C6.93133 2.91187 7.01778 3.17647 7.15879 3.40489C5.69528 3.93458 4.64734 5.30226 4.64469 6.91651L4.63224 7.88699L4.63214 7.89303C4.63214 8.4238 4.40498 8.87765 4.15372 9.19958C3.95466 9.45471 3.97271 9.76472 4.06267 9.97689C4.15322 10.1904 4.38248 10.4466 4.75164 10.4466H6.47246C6.71172 11.3005 7.54955 11.9 8.49799 11.9C9.44643 11.9 10.2843 11.3005 10.5236 10.4466H12.2448C12.6079 10.4466 12.8374 10.1982 12.9302 9.98592C13.0223 9.77522 13.0421 9.47007 12.8515 9.21529ZM7.93137 2.62435C7.93137 2.33078 8.17883 2.08179 8.49804 2.08179C8.81725 2.08179 9.06471 2.33083 9.06471 2.62435C9.06471 2.91786 8.8173 3.16695 8.49804 3.16695C8.17878 3.16695 7.93137 2.91791 7.93137 2.62435ZM8.49804 10.9182C8.07927 10.9182 7.74326 10.7203 7.55715 10.4466H9.43898C9.25287 10.7203 8.91681 10.9182 8.49804 10.9182Z" fill="white"/>
</svg>