<svg width="19" height="18" viewBox="0 0 19 18" fill="none" xmlns="http://www.w3.org/2000/svg">
<path d="M0.0301174 10.2355C0.0301174 9.60472 0.0273326 8.97298 0.0301174 8.3422C0.035687 7.49512 0.451548 7.06634 1.26656 7.06063C1.95162 7.05586 1.94048 7.05586 1.95347 6.33647C1.97204 5.32645 1.91077 4.30215 2.05651 3.31024C2.36191 1.23304 4.2797 -0.196227 6.31723 0.0219744C8.31577 0.236364 9.78428 1.81522 9.87711 3.88385C9.91331 4.69186 9.89289 5.50273 9.89475 6.31264C9.8966 7.05491 9.89475 7.06348 10.6077 7.05777C10.9604 7.05491 11.2909 7.11017 11.5155 7.40555C11.6464 7.57802 11.7522 7.78765 11.8107 7.99822C11.8896 8.28122 11.8237 8.47941 11.4969 8.62424C9.07973 9.69905 7.88042 12.4604 8.72143 15.0273C8.87737 15.5038 9.15678 15.943 9.41669 16.3756C9.55222 16.6014 9.58099 16.7339 9.34522 16.894C8.15611 17.6991 6.86676 18.0993 5.4326 17.9783C2.75178 17.7515 0.625133 15.6353 0.160074 12.9759C0.0041261 12.0812 0.0848848 11.1493 0.0301174 10.2355C0.0468261 10.2345 0.0115522 10.2365 0.0282609 10.2355H0.0301174ZM3.82485 7.06063C5.18011 7.06063 6.51309 7.06539 7.84515 7.05014C7.93612 7.04919 8.1032 6.90436 8.10413 6.82623C8.10413 5.79239 8.13384 4.75379 8.05029 3.72567C7.96304 2.65563 6.94752 1.82761 5.89209 1.85239C4.81716 1.87811 3.85455 2.76521 3.80443 3.85145C3.75801 4.86051 3.78308 5.87338 3.77936 6.88435C3.77936 6.92913 3.80257 6.97392 3.82578 7.05967L3.82485 7.06063ZM5.08728 13.6362C5.08728 13.8973 5.0845 14.1593 5.08728 14.4204C5.09564 15.0207 5.44002 15.4256 5.93757 15.4237C6.4314 15.4218 6.76001 15.0474 6.77393 14.4452C6.78507 13.9706 6.78507 13.4942 6.77393 13.0197C6.76836 12.7615 6.82127 12.5547 6.9865 12.3384C7.41072 11.781 7.3049 10.953 6.79157 10.5061C6.2866 10.0668 5.47994 10.0907 5.01581 10.5585C4.53404 11.0445 4.50341 11.8372 4.92484 12.4061C5.01395 12.5271 5.06408 12.6996 5.07893 12.853C5.10399 13.1121 5.08635 13.3751 5.08728 13.6362ZM2.81583 8.29837C2.42132 8.29837 2.02681 8.30027 1.63322 8.29837C1.33525 8.29646 1.18487 8.42986 1.18673 8.75097C1.19323 9.60758 1.18673 10.4651 1.19044 11.3217C1.19137 11.5399 1.1988 11.7877 1.49677 11.7782C1.77618 11.7696 1.76411 11.5295 1.76504 11.3265C1.76782 10.6357 1.77989 9.94488 1.76225 9.25502C1.75483 8.94821 1.87086 8.86817 2.14934 8.87484C2.77499 8.89008 3.40156 8.8796 4.02721 8.87865C4.22586 8.87865 4.42543 8.84149 4.431 8.5928C4.43657 8.33553 4.224 8.30409 4.03371 8.30123C3.62806 8.29361 3.22148 8.29837 2.81583 8.29837ZM2.52157 13.0712C2.12892 13.0712 1.89778 13.3075 1.89592 13.7105C1.89407 14.0926 2.16233 14.3775 2.51693 14.3689C2.8706 14.3604 3.13051 14.0726 3.1268 13.6915C3.12308 13.3151 2.88452 13.0712 2.52157 13.0712ZM3.88333 15.4914C3.84156 15.256 3.74223 15.0702 3.46283 15.075C3.1862 15.0798 3.06182 15.2617 3.05903 15.5123C3.05625 15.7582 3.19734 15.9154 3.45169 15.9154C3.71439 15.9154 3.85734 15.7715 3.88333 15.4914Z" fill="#231D46"/>
<path d="M13.526 8.77075C16.024 8.76694 18.0234 10.8289 18.0234 13.4082C18.0234 15.9285 16.0138 17.9933 13.5501 18C11.0392 18.0067 9.05273 15.9695 9.04437 13.3787C9.03602 10.826 11.0318 8.77456 13.526 8.77075ZM11.9842 14.9595C11.0875 14.2201 10.9575 12.2648 12.4984 11.3987C12.6785 11.2977 12.8651 11.1929 12.7221 10.9356C12.5829 10.685 12.3991 10.7851 12.2162 10.8842C10.7802 11.6617 10.3077 13.6331 11.2397 14.9985C11.4022 15.2367 11.6101 15.4435 11.8143 15.6836C11.7568 15.6989 11.7159 15.7084 11.6751 15.7198C11.4876 15.7703 11.2898 15.8399 11.3465 16.0886C11.4003 16.3258 11.5999 16.3306 11.7976 16.2906C12.0473 16.2401 12.2979 16.1943 12.5458 16.1372C12.7723 16.0848 12.8837 15.9447 12.8335 15.696C12.7843 15.4521 12.7639 15.1967 12.6785 14.9671C12.6219 14.8146 12.4743 14.6974 12.3685 14.564C12.2478 14.6879 12.1281 14.8118 11.9851 14.9585L11.9842 14.9595ZM15.0744 11.7827C15.4484 12.1295 15.6842 12.6202 15.7158 13.2015C15.7668 14.1543 15.3872 14.8804 14.5805 15.3663C14.3949 15.4778 14.1832 15.6055 14.341 15.8618C14.4942 16.1095 14.6956 15.979 14.885 15.8675C16.3823 14.9804 16.7591 13.0233 15.6963 11.6245C15.5635 11.4492 15.4057 11.2929 15.2368 11.1024C15.3148 11.0833 15.3658 11.069 15.4178 11.0585C15.6257 11.0147 15.7724 10.907 15.7149 10.6679C15.6601 10.4411 15.4893 10.4382 15.299 10.484C15.0511 10.544 14.8005 10.5897 14.5508 10.6374C14.2993 10.685 14.1879 10.8241 14.2445 11.0909C14.2937 11.3234 14.3447 11.555 14.3819 11.7894C14.4153 12.0037 14.4803 12.2353 14.7179 12.1943C14.8451 12.1724 14.9388 11.9485 15.0725 11.7846L15.0744 11.7827Z" fill="#231D46"/>
<path d="M3.82485 7.06063C3.80164 6.97487 3.77802 6.93032 3.77802 6.88554C3.78173 5.87457 3.75667 4.8617 3.80308 3.85264C3.85321 2.7664 4.81581 1.8793 5.89074 1.85357C6.94617 1.8288 7.96262 2.65682 8.04895 3.72686C8.13249 4.75498 8.10372 5.79358 8.10279 6.82741C8.10279 6.90555 7.93477 7.05038 7.8438 7.05133C6.51175 7.06562 5.17877 7.06181 3.8235 7.06181L3.82485 7.06063Z" fill="white"/>
<path d="M5.0868 13.6343C5.0868 13.3732 5.10444 13.1093 5.0803 12.8511C5.06545 12.6967 5.01625 12.5252 4.92621 12.4042C4.50478 11.8353 4.53449 11.0416 5.01718 10.5566C5.48131 10.0888 6.2889 10.065 6.79294 10.5042C7.30627 10.9511 7.41209 11.7791 6.98788 12.3365C6.82358 12.5528 6.76974 12.7596 6.77531 13.0178C6.78645 13.4923 6.78737 13.9688 6.77531 14.4433C6.76046 15.0445 6.43185 15.419 5.93894 15.4218C5.4414 15.4237 5.09701 15.0197 5.08866 14.4185C5.08494 14.1574 5.08773 13.8954 5.0868 13.6343Z" fill="white"/>
<path d="M2.81583 8.29837C3.22148 8.29837 3.62806 8.29361 4.03371 8.30123C4.224 8.30409 4.43657 8.33553 4.431 8.5928C4.42543 8.84149 4.22586 8.87865 4.02721 8.87865C3.40156 8.8796 2.77499 8.89008 2.14934 8.87484C1.87086 8.86817 1.75483 8.94821 1.76225 9.25502C1.77989 9.94488 1.76782 10.6357 1.76504 11.3265C1.76411 11.5295 1.77618 11.7696 1.49677 11.7782C1.1988 11.7877 1.19137 11.5399 1.19044 11.3217C1.18673 10.4651 1.19323 9.60758 1.18673 8.75097C1.18487 8.42986 1.33525 8.29646 1.63322 8.29837C2.02773 8.30123 2.42169 8.2983 2.81527 8.29925L2.81583 8.29837Z" fill="white"/>
<path d="M2.52057 13.0717C2.88352 13.0717 3.12208 13.3166 3.1258 13.693C3.12951 14.0731 2.8696 14.3619 2.51593 14.3704C2.16133 14.379 1.89306 14.0941 1.89492 13.712C1.89678 13.308 2.12791 13.0707 2.52057 13.0717Z" fill="white"/>
<path d="M3.88325 15.494C3.85633 15.7741 3.7143 15.918 3.4516 15.918C3.19726 15.918 3.05617 15.7598 3.05895 15.5149C3.06173 15.2643 3.18612 15.0823 3.46274 15.0776C3.74215 15.0728 3.84147 15.2586 3.88325 15.494Z" fill="white"/>
<path d="M11.9841 14.9609C12.127 14.8142 12.2468 14.6903 12.3674 14.5664C12.4742 14.6998 12.6218 14.817 12.6775 14.9695C12.7619 15.1991 12.7824 15.4545 12.8325 15.6984C12.8826 15.9471 12.7712 16.0872 12.5447 16.1396C12.2969 16.1968 12.0463 16.2425 11.7966 16.293C11.5998 16.333 11.4002 16.3273 11.3454 16.091C11.2879 15.8413 11.4865 15.7727 11.674 15.7222C11.7149 15.7108 11.7557 15.7013 11.8133 15.686C11.61 15.4459 11.402 15.2392 11.2387 15.0009C10.3067 13.6355 10.7801 11.6641 12.2152 10.8866C12.399 10.7875 12.5819 10.6874 12.7211 10.938C12.8641 11.1953 12.6765 11.3001 12.4974 11.4011C10.9565 12.2672 11.0864 14.2225 11.9831 14.9619L11.9841 14.9609Z" fill="white"/>
<path d="M15.0744 11.7827C14.9398 11.9466 14.845 12.1717 14.7188 12.1926C14.4812 12.2336 14.4162 12.0021 14.3828 11.7877C14.3456 11.5533 14.2946 11.3217 14.2454 11.0892C14.1888 10.8234 14.3002 10.6833 14.5517 10.6357C14.8023 10.589 15.053 10.5423 15.2999 10.4823C15.4902 10.4365 15.661 10.4394 15.7158 10.6662C15.7733 10.9053 15.6266 11.013 15.4187 11.0568C15.3667 11.0683 15.3157 11.0816 15.2377 11.1007C15.4066 11.2912 15.5635 11.4475 15.6972 11.6228C16.76 13.0216 16.3822 14.9787 14.8859 15.8658C14.6975 15.9773 14.4951 16.1079 14.3419 15.8601C14.1832 15.6038 14.3958 15.4761 14.5814 15.3647C15.3881 14.8797 15.7677 14.1536 15.7167 13.1998C15.6851 12.6186 15.4493 12.1288 15.0753 11.781L15.0744 11.7827Z" fill="white"/>
</svg>
