<svg xmlns="http://www.w3.org/2000/svg" width="18" height="18" viewBox="0 0 18 18" fill="none">
  <path d="M7.912 17.7347C7.66329 17.441 7.72326 16.791 7.49449 16.3676C7.08386 15.6078 6.10291 15.3822 5.30575 15.5454C4.60925 15.6879 4.32321 16.7165 3.44687 16.1337C3.25638 16.007 2.17039 14.8829 2.1156 14.7114C1.90515 14.0525 2.63616 13.7103 2.7617 13.1044C2.9551 12.171 2.30578 11.0988 1.36456 10.8785C0.939809 10.7791 0.489896 10.9454 0.188459 10.5258C-0.0253109 10.2282 -0.0221817 8.84275 0.0286999 8.43475C0.135457 7.57866 0.918914 7.80188 1.50157 7.56302C2.37159 7.20634 2.63106 6.1577 2.45607 5.30285C2.31352 4.60644 1.28484 4.32042 1.86768 3.44415C1.99437 3.25368 3.11858 2.1678 3.29015 2.11302C3.9491 1.90259 4.29139 2.63352 4.89734 2.75905C5.80667 2.94742 6.9268 2.29976 7.14521 1.38385C7.23758 0.996529 7.07614 0.485838 7.47468 0.184544C7.75784 -0.0295208 9.26322 -0.0249346 9.65879 0.0372546C10.4369 0.159595 10.2227 1.03533 10.4748 1.56543C10.8689 2.39423 11.8644 2.62438 12.6997 2.45345C13.3961 2.31091 13.6822 1.28233 14.5585 1.86512C14.749 1.99181 15.8349 3.11581 15.8897 3.28739C16.0953 3.93099 15.3972 4.30169 15.2656 4.91677C15.0818 5.77603 15.6816 6.88644 16.5414 7.11785C17.1537 7.28266 17.8677 6.99718 17.9745 7.92704C18.0168 8.29587 18.0231 9.70112 17.8602 9.95753C17.5752 10.406 16.7512 10.2318 16.2467 10.5863C15.5794 11.0552 15.3927 11.931 15.5493 12.696C15.6919 13.3924 16.7206 13.6784 16.1377 14.5547C15.9865 14.7821 14.8573 15.8661 14.6358 15.9121C14.0729 16.0291 13.7395 15.4299 13.1631 15.2866C12.2116 15.0502 11.1087 15.6675 10.882 16.6368C10.7787 17.0788 10.9523 17.6571 10.4039 17.8913C10.0231 18.054 8.18621 18.0585 7.912 17.7347ZM8.16081 4.94725C7.23508 5.09114 6.04524 5.94195 5.55527 6.72437C3.35869 10.232 6.94321 14.4168 10.6858 12.7716C14.969 10.8888 13.2532 4.15575 8.16081 4.94725Z" />
</svg>