<svg xmlns="http://www.w3.org/2000/svg" width="13" height="12" viewBox="0 0 15 14" fill="none">
  <g clip-path="url(#clip0_500_13211)">
    <path d="M2.38327 11.5475C1.44569 11.4562 0.626558 10.5814 0.552246 9.59511V1.95338C0.648826 0.899909 1.47334 0.0738956 2.47224 0H12.631C13.6712 0.0838852 14.4823 0.948975 14.5522 2.04667V9.50182C14.4857 10.5779 13.6934 11.4438 12.6747 11.5472L7.68746 11.5486L4.61907 13.9254C4.27884 14.0966 3.86797 13.9682 3.72316 13.5912C3.71342 13.5658 3.67536 13.4651 3.67536 13.4522V11.583L3.64165 11.5475C3.23579 11.5185 2.78324 11.5865 2.38327 11.5475ZM4.68066 3.88699C4.11069 4.04519 4.17047 4.85887 4.76546 4.92217L10.3153 4.92222C10.9807 4.853 10.9404 3.9434 10.3602 3.88164L4.68066 3.88699ZM4.74908 6.63272C4.15236 6.71179 4.12473 7.53497 4.69975 7.66506L10.3602 7.66685C10.99 7.57352 10.9363 6.64777 10.2927 6.62642L4.74908 6.63272Z" fill="#898DDA"/>
  </g>
  <defs>
    <clipPath id="clip0_500_13211">
      <rect width="14" height="14" fill="white" transform="translate(0.552246)"/>
    </clipPath>
  </defs>
</svg>