<svg xmlns="http://www.w3.org/2000/svg" width="26" height="16" viewBox="0 0 26 16" fill="none">
  <path d="M17.5215 14.5483H11.5297C10.7018 14.5483 10.0317 13.8052 10.0317 12.8869C10.0317 11.9687 10.7018 11.2255 11.5297 11.2255H17.5215C18.3494 11.2255 19.0195 11.9687 19.0195 12.8869C19.0195 13.8052 18.3494 14.5483 17.5215 14.5483ZM21.0264 9.56408H11.5297C10.7018 9.56408 10.0317 8.8201 10.0317 7.90266C10.0317 6.98523 10.7018 6.24124 11.5297 6.24124H21.0264C21.8544 6.24124 22.5244 6.98523 22.5244 7.90266C22.5244 8.8201 21.8544 9.56408 21.0264 9.56408Z" fill="#7E22CE"/>
  <path d="M11.5297 4.32288H23.8886C24.7165 4.32288 25.3865 3.5789 25.3865 2.66146C25.3865 1.74403 24.7165 1.00004 23.8886 1.00004H11.5297C10.7018 1.00004 10.0317 1.74403 10.0317 2.66146C10.0317 3.5789 10.7018 4.32288 11.5297 4.32288Z" fill="#7E22CE"/>
  <path d="M6.63232 12.1708L3.81616 15M3.81616 15L0.999997 12.1708M3.81616 15L3.81616 1.20294" stroke="#7E22CE" stroke-width="2" stroke-linecap="round" stroke-linejoin="round"/>
</svg>