<svg xmlns="http://www.w3.org/2000/svg" width="26" height="16" viewBox="0 0 26 16" fill="none">
  <path d="M17.5604 1.4503H11.5705C10.7428 1.4503 10.073 2.19355 10.073 3.11193C10.073 4.03031 10.7428 4.77355 11.5705 4.77355H17.5604C18.3881 4.77355 19.0579 4.03031 19.0579 3.11193C19.0579 2.19355 18.3881 1.4503 17.5604 1.4503ZM21.0643 6.43517H11.5705C10.7428 6.43517 10.073 7.17925 10.073 8.09679C10.073 9.01434 10.7428 9.75842 11.5705 9.75842H21.0643C21.8919 9.75842 22.5618 9.01434 22.5618 8.09679C22.5618 7.17925 21.8919 6.43517 21.0643 6.43517Z" fill="#7E22CE"/>
  <path d="M11.5705 11.677H23.9255C24.7532 11.677 25.423 12.4211 25.423 13.3386C25.423 14.2562 24.7532 15.0003 23.9255 15.0003H11.5705C10.7428 15.0003 10.073 14.2562 10.073 13.3386C10.073 12.4211 10.7428 11.677 11.5705 11.677Z" fill="#7E22CE"/>
  <path d="M1.02002 3.82919L3.84889 0.999985M3.84889 0.999985L6.67776 3.82919M3.84889 0.999985L3.84889 14.7971" stroke="#7E22CE" stroke-width="2" stroke-linecap="round" stroke-linejoin="round"/>
</svg>