<svg xmlns="http://www.w3.org/2000/svg" width="10" height="13" viewBox="0 0 10 13" fill="none">
  <path d="M0.745068 2.68014L9.30332 2.70046C9.54211 2.80097 9.49676 3.16975 9.49074 3.39293C9.44326 5.13113 9.24734 6.95691 9.13609 8.70139C9.07905 9.59672 9.05992 10.498 8.99402 11.3922C8.97666 11.6294 8.97347 12.0226 8.91431 12.231C8.87427 12.3718 8.81333 12.4534 8.67729 12.5H1.32008C1.07314 12.4194 1.06145 12.18 1.03842 11.9454C0.844624 9.96365 0.804235 7.86111 0.68413 5.86203C0.635592 5.05169 0.528242 4.19958 0.506276 3.39293C0.498836 3.11949 0.446047 2.78619 0.745068 2.68014ZM2.93671 10.8098C2.98808 10.7492 3.01926 10.6291 3.02032 10.5464L2.99163 4.45159C2.82192 4.16226 2.47224 4.16226 2.30253 4.45159L2.27419 10.6199C2.31529 10.9395 2.74327 11.0375 2.93671 10.8098ZM4.98628 4.23395C4.79284 4.24134 4.62172 4.40393 4.60861 4.60753L4.6366 10.6642C4.74501 11.0123 5.21586 11.0201 5.35475 10.6953L5.37069 4.51552C5.32924 4.35072 5.14572 4.22841 4.98628 4.23432V4.23395ZM7.06066 10.8098C7.25375 11.0375 7.68208 10.9395 7.72318 10.6199L7.69484 4.45159C7.52513 4.16226 7.17545 4.16226 7.00574 4.45159L6.97704 10.5464C6.97811 10.6288 7.00928 10.7489 7.06066 10.8098Z" />
  <path d="M2.54947 0.505543L7.41778 0.5C8.1749 0.653349 8.12991 1.70425 7.34976 1.78702L2.61572 1.78333C1.88234 1.69132 1.82849 0.672564 2.54947 0.505543Z" />
</svg>