<svg xmlns="http://www.w3.org/2000/svg" width="20" height="18" viewBox="0 0 20 18" fill="none">
  <path d="M8.99454 3.383C8.58032 3.77036 7.81731 3.9801 8.02291 4.70073C8.17658 5.23936 8.75203 5.36395 9.20554 5.08217C10.1283 4.50884 11.0002 3.74068 11.9198 3.14987C12.297 2.84707 12.2864 2.26625 11.8974 1.97537L9.04617 0.0977162C8.4333 -0.241015 7.72442 0.358246 7.97644 1.01614C8.12838 1.41279 8.69762 1.58551 8.99452 1.86193C6.85925 2.2132 4.923 3.4357 3.68012 5.18092C3.4435 5.51318 2.83137 6.45375 2.84323 6.83418C2.86126 7.41257 3.5168 7.74315 4.01051 7.43457C4.26035 7.27842 4.42585 6.80424 4.58046 6.5397C5.51569 4.93948 7.15396 3.73841 8.99454 3.383ZM17.6673 13.6013C19.2647 10.5441 18.7058 6.76 16.3278 4.27462C15.7706 3.69224 14.6925 2.83008 13.938 2.54785C13.1847 2.26606 12.5612 3.09482 13.0451 3.69658C13.204 3.89423 13.7648 4.13317 14.0166 4.29476C16.6455 5.98211 17.7467 9.25233 16.6599 12.1873C16.5943 12.3643 16.5085 12.5338 16.4398 12.7093L16.4186 12.4956C16.4336 12.1859 16.5053 11.7057 16.3487 11.4314C16.0857 10.9709 15.4101 10.9379 15.0936 11.3646C14.9045 11.6195 14.9611 11.8034 14.9477 12.0919C14.9121 12.8622 14.9013 13.6305 14.8863 14.4032C14.8773 14.8714 14.7265 15.4821 15.2397 15.7544C15.5405 15.9139 15.7246 15.8438 16.0211 15.7511C16.9055 15.4745 17.8505 15.1398 18.7211 14.8184C18.9396 14.7378 19.1682 14.6886 19.3237 14.5033C19.6486 14.1164 19.5078 13.5184 19.0376 13.328C18.5961 13.1492 18.0955 13.5058 17.6673 13.6013ZM3.88107 11.4726C4.15434 11.7128 4.36424 12.2264 4.69912 12.3748C5.43318 12.7002 6.08241 11.8555 5.60746 11.2311C4.89585 10.4289 4.3002 9.41916 3.58452 8.63386C3.22494 8.23931 2.6971 8.23477 2.371 8.66825C1.83993 9.61642 1.12169 10.5352 0.612094 11.4867C0.298368 12.0725 0.67411 12.6974 1.35446 12.6281C1.87977 12.5746 2.04099 11.9315 2.32041 11.5794C2.33343 11.563 2.3198 11.5421 2.36713 11.5537C3.06915 15.0665 6.16464 17.7122 9.7618 17.9808C11.1566 18.085 13.0279 17.7642 14.2372 17.0444C14.9995 16.5907 14.5632 15.4838 13.7033 15.6636C13.5187 15.7022 13.1997 15.901 13.003 15.9832C11.4055 16.6507 9.58727 16.6843 7.96669 16.0701C5.96077 15.3097 4.3771 13.5509 3.88107 11.4726Z" />
  <path d="M3.88107 11.4726C4.3771 13.5509 5.96077 15.3097 7.96669 16.0701C9.58727 16.6843 11.4055 16.6507 13.003 15.9832C13.1997 15.901 13.5187 15.7022 13.7033 15.6636C14.5632 15.4838 14.9995 16.5907 14.2372 17.0444C13.0279 17.7642 11.1566 18.085 9.7618 17.9808C6.16464 17.7122 3.06915 15.0665 2.36713 11.5537C2.3198 11.5421 2.33343 11.563 2.32041 11.5794C2.04099 11.9315 1.87977 12.5746 1.35446 12.6281C0.67411 12.6974 0.298368 12.0725 0.612094 11.4867C1.12169 10.5352 1.83993 9.61642 2.371 8.66825C2.6971 8.23477 3.22494 8.23931 3.58452 8.63386C4.3002 9.41916 4.89585 10.4289 5.60746 11.2311C6.08241 11.8555 5.43318 12.7002 4.69912 12.3748C4.36424 12.2264 4.15434 11.7128 3.88107 11.4726Z" />
  <path d="M17.6673 13.6013C18.0955 13.5058 18.5961 13.1492 19.0376 13.328C19.5078 13.5184 19.6486 14.1164 19.3237 14.5033C19.1682 14.6886 18.9396 14.7378 18.7211 14.8184C17.8505 15.1398 16.9055 15.4745 16.0211 15.7511C15.7246 15.8438 15.5405 15.9139 15.2397 15.7544C14.7265 15.4821 14.8773 14.8714 14.8863 14.4032C14.9013 13.6305 14.9121 12.8622 14.9477 12.0919C14.9611 11.8034 14.9045 11.6195 15.0936 11.3646C15.4101 10.9379 16.0857 10.9709 16.3487 11.4314C16.5053 11.7057 16.4336 12.1859 16.4186 12.4956L16.4398 12.7093C16.5085 12.5338 16.5943 12.3643 16.6599 12.1873C17.7467 9.25233 16.6455 5.98211 14.0166 4.29476C13.7648 4.13317 13.204 3.89423 13.0451 3.69658C12.5612 3.09482 13.1847 2.26606 13.938 2.54785C14.6925 2.83008 15.7706 3.69224 16.3278 4.27462C18.7058 6.76 19.2647 10.5441 17.6673 13.6013Z" />
  <path d="M8.99454 3.383C7.15396 3.73841 5.51569 4.93948 4.58046 6.5397C4.42585 6.80424 4.26035 7.27842 4.01051 7.43457C3.5168 7.74315 2.86126 7.41257 2.84323 6.83418C2.83137 6.45375 3.4435 5.51318 3.68012 5.18092C4.923 3.4357 6.85925 2.2132 8.99452 1.86193C8.69762 1.58551 8.12838 1.41279 7.97644 1.01614C7.72442 0.358246 8.4333 -0.241015 9.04617 0.0977162L11.8974 1.97537C12.2864 2.26625 12.297 2.84707 11.9198 3.14987C11.0002 3.74068 10.1283 4.50884 9.20554 5.08217C8.75203 5.36395 8.17658 5.23936 8.02291 4.70073C7.81731 3.9801 8.58032 3.77036 8.99454 3.383Z" />
</svg>