<svg xmlns="http://www.w3.org/2000/svg" width="16" height="16" viewBox="0 0 16 16" fill="none">
  <path fill-rule="evenodd" clip-rule="evenodd" d="M10.8169 10.8161C9.73136 11.9016 8.28736 12.4998 6.75173 12.4998C5.2161 12.4998 3.77312 11.9016 2.6876 10.8161C0.446088 8.5746 0.446088 4.92836 2.6876 2.68685C3.80836 1.56609 5.27954 1.00621 6.75173 1.00621C8.22392 1.00621 9.69612 1.5671 10.8169 2.68685C13.0584 4.92836 13.0584 8.5746 10.8169 10.8161ZM15.8537 15.1411L11.8671 11.1545C14.151 8.50311 14.0422 4.48932 11.5288 1.97492C8.89557 -0.658307 4.6089 -0.658307 1.97568 1.97492C-0.658559 4.60915 -0.658559 8.89482 1.97568 11.528C3.25151 12.8039 4.94724 13.5067 6.75173 13.5067C8.38705 13.5067 9.93074 12.9247 11.1552 11.8664L15.1418 15.853C15.2405 15.9517 15.3694 16 15.4973 16C15.6262 16 15.7551 15.9517 15.8537 15.853C16.0501 15.6566 16.0501 15.3374 15.8537 15.1411Z" />
</svg>