<svg width="27" height="26" viewBox="0 0 27 26" fill="none" xmlns="http://www.w3.org/2000/svg">
<path d="M21.5177 13.0833C18.9708 14.0583 16.0784 17.354 14.1983 15.7447C12.4597 14.2566 14.5733 11.8095 16.77 10.8613C19.7987 9.55392 23.6557 10.8084 25.7188 7.47548C26.7531 5.80465 26.2471 3.33727 24.4631 2.35888C23.4072 1.77985 22.1798 2.02876 21.8243 3.26132C21.7331 3.57753 21.7481 3.85047 21.8312 4.09477C23.1 4.30821 24.0841 5.37088 23.9761 6.55835C23.8437 8.01646 22.5595 8.21549 21.2282 8.3755C21.168 8.38502 21.1083 8.39436 21.0503 8.40349C18.2481 8.84347 14.5958 8.96736 12.2325 10.8175C7.0509 14.8739 12.324 20.5019 17.6079 17.5188C19.063 16.6973 20.9095 14.0252 22.6634 14.5528C25.0501 15.2708 23.9251 18.2469 21.732 20.2421C15.2206 26.1659 0.550243 20.3473 1.77838 11.1261C2.20167 7.94844 4.32374 5.26193 6.57343 4.18504C8.22815 3.41126 10.4465 2.8826 12.2566 3.07987C13.7758 3.24543 14.9312 3.91667 15.0441 5.321C15.3781 5.36938 15.716 5.37933 16.059 5.32716C18.0431 5.02536 18.5955 2.94478 17.1383 1.64607C14.8215 -0.418893 9.216 0.678857 6.70019 2.02969C-5.0822 8.35586 -0.389277 25.8103 13.4897 25.4958C19.1413 25.3678 24.9744 21.0605 25.7987 16.024C26.1637 13.7937 24.2486 12.0379 21.5177 13.0833Z" fill="#231D46"/>
</svg>
